<svg xmlns="http://www.w3.org/2000/svg" xmlns:svg="http://www.w3.org/2000/svg" xmlns:xlink="http://www.w3.org/1999/xlink" id="svg11300" width="53" height="49" version="1.0" style="enable-background:new"><style id="night-mode-pro-style" type="text/css"/><link id="night-mode-pro-link" rel="stylesheet" type="text/css"/><title id="title13909">Evolution</title><defs id="defs3"><linearGradient id="linearGradient11384" x1="8.916" x2="9.886" y1="37.197" y2="52.091" gradientTransform="matrix(1.537475,0,0,0.477257,4.995766,7.023296)" gradientUnits="userSpaceOnUse" xlink:href="#linearGradient2152"/><linearGradient id="linearGradient2152"><stop style="stop-color:#9aa29a;stop-opacity:1" id="stop2154" offset="0"/><stop style="stop-color:#b5beb5;stop-opacity:1" id="stop2156" offset="1"/></linearGradient><radialGradient id="radialGradient11380" cx="6.703" cy="73.616" r="7.228" fx="6.703" fy="73.616" gradientTransform="scale(1.902215,0.525703)" gradientUnits="userSpaceOnUse" xlink:href="#linearGradient10691"/><linearGradient id="linearGradient10691"><stop id="stop10693" offset="0" style="stop-color:#000;stop-opacity:1"/><stop id="stop10695" offset="1" style="stop-color:#000;stop-opacity:0"/></linearGradient><radialGradient id="radialGradient11386" cx="8.747" cy="6.828" r="29.89" fx="8.747" fy="6.828" gradientUnits="userSpaceOnUse" xlink:href="#linearGradient37935"/><linearGradient id="linearGradient37935"><stop style="stop-color:#9497b3;stop-opacity:1" id="stop37937" offset="0"/><stop style="stop-color:#4c4059;stop-opacity:1" id="stop37939" offset="1"/></linearGradient><radialGradient id="radialGradient11388" cx="11.902" cy="10.045" r="29.293" fx="11.902" fy="10.045" gradientUnits="userSpaceOnUse" xlink:href="#linearGradient2145"/><linearGradient id="linearGradient2145"><stop id="stop2147" offset="0" style="stop-color:#fffffd;stop-opacity:1"/><stop id="stop2149" offset="1" style="stop-color:#cbcbc9;stop-opacity:1"/></linearGradient><linearGradient id="linearGradient11390" x1="6.342" x2="22.218" y1="7.789" y2="25.884" gradientUnits="userSpaceOnUse" xlink:href="#linearGradient42174"/><linearGradient id="linearGradient42174"><stop id="stop42176" offset="0" style="stop-color:#a0a0a0;stop-opacity:1"/><stop id="stop42178" offset="1" style="stop-color:#fff;stop-opacity:1"/></linearGradient><linearGradient id="linearGradient11392" x1="13.037" x2="19.359" y1="8.312" y2="17.323" gradientUnits="userSpaceOnUse" xlink:href="#linearGradient2111"/><linearGradient id="linearGradient2111"><stop id="stop2113" offset="0" style="stop-color:#838383;stop-opacity:1"/><stop id="stop2115" offset="1" style="stop-color:#000;stop-opacity:1"/></linearGradient><linearGradient id="linearGradient11394" x1="13.037" x2="19.359" y1="-1.588" y2="7.423" gradientUnits="userSpaceOnUse" xlink:href="#linearGradient2111"/><linearGradient id="linearGradient11396" x1="17.987" x2="24.309" y1="3.362" y2="12.373" gradientUnits="userSpaceOnUse" xlink:href="#linearGradient2111"/><linearGradient id="linearGradient11398" x1="8.088" x2="14.409" y1="3.362" y2="12.373" gradientUnits="userSpaceOnUse" xlink:href="#linearGradient2111"/><radialGradient id="radialGradient11400" cx="11.329" cy="10.584" r="15.532" fx="11.329" fy="10.584" gradientUnits="userSpaceOnUse" xlink:href="#linearGradient10653"/><linearGradient id="linearGradient10653"><stop id="stop10655" offset="0" style="stop-color:#f3f4ff;stop-opacity:1"/><stop id="stop10657" offset="1" style="stop-color:#9193af;stop-opacity:1"/></linearGradient><radialGradient id="radialGradient11382" cx="6.703" cy="73.616" r="7.228" fx="6.703" fy="73.616" gradientTransform="scale(1.902215,0.525703)" gradientUnits="userSpaceOnUse" xlink:href="#linearGradient10691"/><linearGradient id="linearGradient11402" x1="11.573" x2="18.475" y1="4.746" y2="26.023" gradientTransform="matrix(0.841443,0,0,0.87204,4.995766,7.023296)" gradientUnits="userSpaceOnUse" xlink:href="#linearGradient15107"/><linearGradient id="linearGradient15107"><stop style="stop-color:#fff;stop-opacity:1" id="stop15109" offset="0"/><stop style="stop-color:#e2e2e2;stop-opacity:1" id="stop15111" offset="1"/></linearGradient><linearGradient id="linearGradient11404" x1="2.062" x2="30.6" y1="15.257" y2="15.257" gradientTransform="matrix(0.841443,0,0,0.87204,4.995766,7.023296)" gradientUnits="userSpaceOnUse" xlink:href="#linearGradient2136"/><linearGradient id="linearGradient2136"><stop style="stop-color:#989690;stop-opacity:1" id="stop2138" offset="0"/><stop style="stop-color:#656460;stop-opacity:1" id="stop2140" offset="1"/></linearGradient><linearGradient id="linearGradient11406" x1="5.827" x2="13.467" y1="7.231" y2="17.877" gradientTransform="matrix(0.9837,0,0,0.74593,4.995766,7.023296)" gradientUnits="userSpaceOnUse" xlink:href="#linearGradient18913"/><linearGradient id="linearGradient18913"><stop style="stop-color:#ededed;stop-opacity:1" id="stop18915" offset="0"/><stop style="stop-color:#c8c8c8;stop-opacity:1" id="stop18917" offset="1"/></linearGradient><linearGradient id="linearGradient11408" x1="10.184" x2="15.311" y1="15.148" y2="29.569" gradientTransform="matrix(1.13944,0,0,0.643976,4.995766,7.023296)" gradientUnits="userSpaceOnUse" xlink:href="#linearGradient2166"/><linearGradient id="linearGradient2166"><stop style="stop-color:#fff;stop-opacity:1" id="stop2168" offset="0"/><stop style="stop-color:#dcdcdc;stop-opacity:1" id="stop2170" offset="1"/></linearGradient><linearGradient id="linearGradient11410" x1="8.916" x2="9.886" y1="37.197" y2="52.091" gradientTransform="matrix(1.537475,0,0,0.477257,4.995766,7.023296)" gradientUnits="userSpaceOnUse" xlink:href="#linearGradient2152"/><linearGradient id="linearGradient11412" x1="8.916" x2="9.886" y1="37.197" y2="52.091" gradientTransform="matrix(1.537475,0,0,0.477257,4.995766,7.023296)" gradientUnits="userSpaceOnUse" xlink:href="#linearGradient2152"/><linearGradient id="linearGradient11414" x1="11.233" x2="21.112" y1="13.686" y2="24.133" gradientTransform="matrix(0.841423,0,0,0.872061,4.995766,7.023296)" gradientUnits="userSpaceOnUse" xlink:href="#linearGradient9749"/><linearGradient id="linearGradient9749"><stop style="stop-color:#fff;stop-opacity:1" id="stop9751" offset="0"/><stop style="stop-color:#ededed;stop-opacity:1" id="stop9753" offset="1"/></linearGradient><linearGradient id="linearGradient11416" x1="8.78" x2="9.762" y1="37.785" y2="32.203" gradientTransform="matrix(1.5,0,0,0.489191,4.995766,7.023296)" gradientUnits="userSpaceOnUse" xlink:href="#linearGradient2274"/><linearGradient id="linearGradient2274"><stop style="stop-color:#000;stop-opacity:.12871288" id="stop2276" offset="0"/><stop style="stop-color:#000;stop-opacity:0" id="stop2278" offset="1"/></linearGradient></defs><metadata id="metadata4"/><g id="g11365" transform="matrix(1.340124,0,0,1.340124,-3.1435203,-6.78895)"><path id="path10699" d="m 26.5,38.7 a 13.75,3.8 0 0 1 -13.75,3.8 13.75,3.8 0 0 1 -13.75,-3.8 13.75,3.8 0 0 1 13.75,-3.8 13.75,3.8 0 0 1 13.75,3.8 z" transform="matrix(1.127751,0,0,1.236842,3.871169,-16.16579)" style="opacity:.57541899;fill:url(#radialGradient11382)"/><path id="path12723" d="m 7.1590246,17.268457 0,15.074409 23.1563204,0 -0.03824,-15.002075 C 30.274905,16.493516 22.85617,8.3133557 21.487588,8.3133557 l -5.355954,0 c -1.438853,0 -8.9726084,8.1565933 -8.9726084,8.9551013 z" style="fill:url(#linearGradient11402);stroke:url(#linearGradient11404);stroke-width:.63919783;stroke-linejoin:round"/><path id="path18153" d="M 7.5283144,17.322538 C 7.2790156,17.053141 14.973303,8.7460064 16.136529,8.7460064 l 5.24589,0 c 1.094482,0 8.791383,8.2223486 8.409649,8.6966926 l -6.802583,8.452915 -7.712163,-0.199359 -7.7490076,-8.373717 z" style="fill:url(#linearGradient11406)"/><path id="path2164" d="m 15.140883,25.609036 -4.592796,-5.477783 15.544238,-4.344191 1.840754,3.780413 -4.58841,6.02572" style="fill-opacity:.14619883"/><path id="path2162" d="M 14.648745,25.495465 9.9622552,19.977529 25.39942,15.660107 l 1.987983,3.927642 -4.534872,5.891876" style="fill-opacity:.14619883"/><path id="path2160" d="m 14.951599,25.571179 -4.806948,-5.424245 15.63793,-4.424498 2.001368,4.034718 -4.628564,5.798185" style="fill-opacity:.14619883"/><path id="path15105" d="m 14.838029,25.874033 -4.592798,-5.477783 15.477317,-4.317422 1.854139,3.887489 -4.534872,5.891876" style="fill:url(#linearGradient11408)"/><path id="path14245" d="m 16.024558,25.011992 -8.3901392,6.871959 8.7113652,-6.015354 5.648238,0 7.778278,5.938872 -7.430282,-6.795477 -6.31746,0 z" style="fill:url(#linearGradient11410)"/><path id="path14339" d="m 7.5536271,17.383943 7.2127919,8.966494 0.669223,-0.535378 -7.8820149,-8.431116 z" style="fill:url(#linearGradient11412)"/><path id="path15103" d="m 7.988823,17.45608 0.01912,14.019951 21.447771,0 -0.03824,-13.943786 c -0.0012,-0.452472 -6.884146,-8.3344873 -8.214658,-8.3344873 l -4.846049,0 c -1.382354,0 -8.368586,7.7869753 -8.3679435,8.2583223 z" style="fill:none;stroke:url(#linearGradient11414);stroke-width:.63919765"/><path id="path17393" d="m 16.3182,25.881574 -7.4791807,5.180189 1.3900717,0.0038 6.26201,-4.302144 5.525323,-0.891149 -5.698224,0.0093 z" style="fill:#fff"/><path id="path2174" d="m 10.349551,20.380972 0.829836,0.883374 14.274319,-4.311695 1.73158,3.445905 0.403436,-0.445886 -1.847054,-3.88149 -15.392117,4.309792 z" style="fill:#fff"/><path id="path2272" d="m 11.527382,21.612342 3.774415,4.042104 0.74953,-0.642454 6.31746,0.02677 0.508609,0.455071 2.489508,-2.971348 C 24.644144,21.639111 11.527382,21.612342 11.527382,21.612342 Z" style="fill:url(#linearGradient11416)"/></g><g id="g11350" transform="matrix(1.322987,0,0,1.322987,-10.00143,-5.50497)"><path id="path14341" d="m 29.838359,17.3583 -7.068038,8.215839 0.619508,0.611861 6.44853,-8.8277 z" style="fill:url(#linearGradient11384)"/><path id="path18921" d="m 29.779094,17.314041 -6.303085,8.740435 0.900446,0.79501 5.402639,-9.535445 z" style="fill:#fefefe"/><path style="opacity:.57541899;fill:url(#radialGradient11380)" id="path10689" d="m 26.5,38.7 a 13.75,3.8 0 0 1 -13.75,3.8 13.75,3.8 0 0 1 -13.75,-3.8 13.75,3.8 0 0 1 13.75,-3.8 13.75,3.8 0 0 1 13.75,3.8 z" transform="matrix(0.9,0,0,1,21.1,-2)"/><path id="path27786" d="M 31.160714,16.910715 A 14.910714,14.910714 0 0 1 16.25,31.821429 14.910714,14.910714 0 0 1 1.3392859,16.910715 14.910714,14.910714 0 0 1 16.25,2 14.910714,14.910714 0 0 1 31.160714,16.910715 Z" transform="matrix(0.704562,0,0,0.704562,20.97029,15.85306)" style="fill:url(#radialGradient11386);stroke:#605773;stroke-width:1.07281601;stroke-linecap:round;stroke-linejoin:round"/><path id="path35549" d="M 31.160714,16.910715 A 14.910714,14.910714 0 0 1 16.25,31.821429 14.910714,14.910714 0 0 1 1.3392859,16.910715 14.910714,14.910714 0 0 1 16.25,2 14.910714,14.910714 0 0 1 31.160714,16.910715 Z" transform="matrix(0.521637,0,0,0.521637,23.89626,18.89987)" style="fill:url(#radialGradient11388);stroke:url(#linearGradient11390);stroke-width:1.19972134;stroke-linecap:round;stroke-linejoin:round"/><path id="path34778" d="M 16.40625,17.28125 A 1.21875,1.21875 0 0 1 15.1875,18.5 1.21875,1.21875 0 0 1 13.96875,17.28125 1.21875,1.21875 0 0 1 15.1875,16.0625 a 1.21875,1.21875 0 0 1 1.21875,1.21875 z" transform="matrix(0.89268,0,0,0.89268,18.74719,12.22636)" style="fill:#f3f3f3;stroke:#000;stroke-width:.70105666;stroke-linecap:round;stroke-linejoin:round"/><path id="path35559" d="M 31.823046,26.54761 29.751878,21.917149" style="fill:none;stroke:#000;stroke-width:.62581909;stroke-linecap:round"/><path id="path35561" d="m 29.604314,31.540403 1.921439,-2.771874" style="fill:none;stroke:#000;stroke-width:.93872845;stroke-linecap:round"/><path id="path35563" d="M 17.324117,7.6932044 A 0.61871845,0.61871845 0 0 1 16.705399,8.3119228 0.61871845,0.61871845 0 0 1 16.08668,7.6932044 0.61871845,0.61871845 0 0 1 16.705399,7.074486 0.61871845,0.61871845 0 0 1 17.324117,7.6932044 Z" transform="matrix(1.189172,0,0,1.189172,12.45482,12.63401)" style="fill:url(#linearGradient11392)"/><path id="path35565" d="M 17.324117,7.6932044 A 0.61871845,0.61871845 0 0 1 16.705399,8.3119228 0.61871845,0.61871845 0 0 1 16.08668,7.6932044 0.61871845,0.61871845 0 0 1 16.705399,7.074486 0.61871845,0.61871845 0 0 1 17.324117,7.6932044 Z" transform="matrix(1.189172,0,0,1.189172,12.45482,24.40622)" style="fill:url(#linearGradient11394)"/><path id="path35567" d="M 17.324117,7.6932044 A 0.61871845,0.61871845 0 0 1 16.705399,8.3119228 0.61871845,0.61871845 0 0 1 16.08668,7.6932044 0.61871845,0.61871845 0 0 1 16.705399,7.074486 0.61871845,0.61871845 0 0 1 17.324117,7.6932044 Z" transform="matrix(1.189172,0,0,1.189172,6.568712,18.52011)" style="fill:url(#linearGradient11396)"/><path id="path35569" d="M 17.324117,7.6932044 A 0.61871845,0.61871845 0 0 1 16.705399,8.3119228 0.61871845,0.61871845 0 0 1 16.08668,7.6932044 0.61871845,0.61871845 0 0 1 16.705399,7.074486 0.61871845,0.61871845 0 0 1 17.324117,7.6932044 Z" transform="matrix(1.189172,0,0,1.189172,18.34092,18.52011)" style="fill:url(#linearGradient11398)"/><path style="fill:none;stroke:url(#radialGradient11400);stroke-width:1.14583468;stroke-linecap:round;stroke-linejoin:round" id="path10651" d="M 31.160714,16.910715 A 14.910714,14.910714 0 0 1 16.25,31.821429 14.910714,14.910714 0 0 1 1.3392859,16.910715 14.910714,14.910714 0 0 1 16.25,2 14.910714,14.910714 0 0 1 31.160714,16.910715 Z" transform="matrix(0.659664,0,0,0.659664,21.69988,16.61232)"/></g></svg>