<svg xmlns="http://www.w3.org/2000/svg" xmlns:svg="http://www.w3.org/2000/svg" xmlns:xlink="http://www.w3.org/1999/xlink" id="svg11300" width="256" height="256" version="1.0" style="display:inline;enable-background:new"><style id="night-mode-pro-style" type="text/css"/><link id="night-mode-pro-link" rel="stylesheet" type="text/css"/><title id="title4353">Speaker</title><defs id="defs3"><linearGradient id="linearGradient5618"><stop id="stop5620" offset="0" style="stop-color:#eeeeec;stop-opacity:1"/><stop id="stop5622" offset="1" style="stop-color:#888a85;stop-opacity:1"/></linearGradient><linearGradient id="linearGradient4342"><stop id="stop4344" offset="0" style="stop-color:#fff;stop-opacity:1"/><stop id="stop4350" offset=".885" style="stop-color:#fff;stop-opacity:1"/><stop id="stop4346" offset="1" style="stop-color:#000;stop-opacity:1"/></linearGradient><linearGradient id="linearGradient4098"><stop id="stop4100" offset="0" style="stop-color:#babdb6;stop-opacity:1"/><stop id="stop4102" offset=".35" style="stop-color:#eeeeec;stop-opacity:1"/><stop id="stop4104" offset=".601" style="stop-color:#fff;stop-opacity:1"/><stop id="stop4108" offset=".801" style="stop-color:#eeeeec;stop-opacity:1"/><stop id="stop4106" offset="1" style="stop-color:#babdb6;stop-opacity:1"/></linearGradient><linearGradient id="linearGradient5289-1-1"><stop id="stop5291-8-4" offset="0" style="stop-color:#fff;stop-opacity:1"/><stop id="stop5293-1-0" offset="1" style="stop-color:#fff;stop-opacity:0"/></linearGradient><linearGradient id="linearGradient5289-5"><stop id="stop5291-64" offset="0" style="stop-color:#fff;stop-opacity:1"/><stop id="stop5293-7" offset="1" style="stop-color:#fff;stop-opacity:0"/></linearGradient><linearGradient id="linearGradient5229-9"><stop id="stop5231-3" offset="0" style="stop-color:#babdb6;stop-opacity:1"/><stop id="stop5233-2" offset="1" style="stop-color:#eeeeec;stop-opacity:1"/></linearGradient><linearGradient id="linearGradient5025-7"><stop id="stop5027-8" offset="0" style="stop-color:#000;stop-opacity:1"/><stop id="stop5029-4" offset="1" style="stop-color:#000;stop-opacity:0"/></linearGradient><filter id="filter5021-1" color-interpolation-filters="sRGB"><feGaussianBlur id="feGaussianBlur5023-8" stdDeviation="2.64"/></filter><filter id="filter5733-3" width="1.252" height="1.78" x="-.126" y="-.39" color-interpolation-filters="sRGB"><feGaussianBlur id="feGaussianBlur5735-6" stdDeviation="7.802"/></filter><filter id="filter6280" width="1.187" height="1.581" x="-.094" y="-.29" color-interpolation-filters="sRGB"><feGaussianBlur id="feGaussianBlur6282" stdDeviation="4.536"/></filter><linearGradient id="linearGradient4004-0"><stop id="stop4006-8" offset="0" style="stop-color:#fff;stop-opacity:1"/><stop id="stop4008-1" offset="1" style="stop-color:#fff;stop-opacity:0"/></linearGradient><filter id="filter3999-2" width="1.095" height="1.542" x="-.047" y="-.271" color-interpolation-filters="sRGB"><feGaussianBlur id="feGaussianBlur4001-9" stdDeviation="2.416"/></filter><linearGradient id="linearGradient3954-8"><stop id="stop3956-6" offset="0" style="stop-color:#fff;stop-opacity:1"/><stop id="stop3958-8" offset="1" style="stop-color:#fff;stop-opacity:0"/></linearGradient><filter id="filter3966-2" width="1.027" height="1.211" x="-.014" y="-.106" color-interpolation-filters="sRGB"><feGaussianBlur id="feGaussianBlur3968-0" stdDeviation=".699"/></filter><radialGradient id="radialGradient4362" cx="172" cy="216.5" r="11.75" fx="172" fy="216.5" gradientUnits="userSpaceOnUse" xlink:href="#linearGradient4342"/><mask id="mask4358"><path id="path4360" d="m 183.75,216.5 a 11.75,11.75 0 1 1 -23.5,0 11.75,11.75 0 1 1 23.5,0 z" style="color:#000;fill:url(#radialGradient4362);fill-opacity:1;fill-rule:nonzero;stroke:none;stroke-width:4;marker:none;visibility:visible;display:inline;overflow:visible;enable-background:accumulate"/></mask><linearGradient id="linearGradient4045-7-0"><stop id="stop4047-1-3" offset="0" style="stop-color:#fff;stop-opacity:1"/><stop id="stop4049-5-1" offset="1" style="stop-color:#fff;stop-opacity:0"/></linearGradient><linearGradient id="linearGradient4045-7-9"><stop id="stop4047-1-8" offset="0" style="stop-color:#fff;stop-opacity:1"/><stop id="stop4049-5-4" offset="1" style="stop-color:#fff;stop-opacity:0"/></linearGradient><linearGradient id="linearGradient5079-6-6"><stop id="stop5081-2-2" offset="0" style="stop-color:#fff;stop-opacity:1"/><stop id="stop5083-0-0" offset="1" style="stop-color:#fff;stop-opacity:0"/></linearGradient><filter id="filter5241-4-7" color-interpolation-filters="sRGB"><feGaussianBlur id="feGaussianBlur5243-4-5" stdDeviation="1.59"/></filter><linearGradient id="linearGradient3833-9-6"><stop id="stop3835-3-3" offset="0" style="stop-color:#fff;stop-opacity:1"/><stop id="stop3837-5-4" offset="1" style="stop-color:#fff;stop-opacity:0"/></linearGradient><filter id="filter5381-8-4" color-interpolation-filters="sRGB"><feGaussianBlur id="feGaussianBlur5383-6-38" stdDeviation="3.526"/></filter><linearGradient id="linearGradient4665-6"><stop id="stop4667-6" offset="0" style="stop-color:#fff;stop-opacity:1"/><stop id="stop4669-1" offset="1" style="stop-color:#fff;stop-opacity:0"/></linearGradient><filter id="filter4677-3" color-interpolation-filters="sRGB"><feGaussianBlur id="feGaussianBlur4679-1" stdDeviation=".235"/></filter><linearGradient id="linearGradient4665-6-3"><stop id="stop4667-6-9" offset="0" style="stop-color:#fff;stop-opacity:1"/><stop id="stop4669-1-1" offset="1" style="stop-color:#fff;stop-opacity:0"/></linearGradient><filter id="filter5668" color-interpolation-filters="sRGB"><feGaussianBlur id="feGaussianBlur5670" stdDeviation=".117"/></filter><linearGradient id="linearGradient4045-9-7-7"><stop id="stop4047-9-7-7" offset="0" style="stop-color:#fff;stop-opacity:1"/><stop id="stop4049-2-7-8" offset="1" style="stop-color:#fff;stop-opacity:0"/></linearGradient><radialGradient id="radialGradient3572" cx="176.805" cy="225.758" r="12.023" fx="176.805" fy="225.758" gradientTransform="matrix(0.83684101,1.4494513,-0.70420993,0.40657582,186.24568,-123.89931)" gradientUnits="userSpaceOnUse" xlink:href="#linearGradient4665-6"/><radialGradient id="radialGradient3574" cx="176.83" cy="224.931" r="12.023" fx="176.83" fy="224.931" gradientTransform="matrix(0.83684106,1.4494513,-1.0434162,0.60241673,262.54382,-167.95007)" gradientUnits="userSpaceOnUse" xlink:href="#linearGradient4665-6-3"/><linearGradient id="linearGradient3620" x1="78.75" x2="78.75" y1="68.059" y2="104.941" gradientUnits="userSpaceOnUse" xlink:href="#linearGradient4045-7-0"/><linearGradient id="linearGradient3622" x1="78.75" x2="78.75" y1="68.059" y2="104.941" gradientUnits="userSpaceOnUse" xlink:href="#linearGradient4045-7-9"/><linearGradient id="linearGradient3624" x1="78.75" x2="78.75" y1="68.059" y2="104.941" gradientUnits="userSpaceOnUse" xlink:href="#linearGradient4045-9-7-7"/><radialGradient id="radialGradient5828-8" cx="143.75" cy="155.25" r="63.25" fx="143.75" fy="155.25" gradientTransform="matrix(1,0,0,1.4343292,0,-67.4296)" gradientUnits="userSpaceOnUse" xlink:href="#linearGradient5679-52"/><linearGradient id="linearGradient5679-52"><stop id="stop5681-2" offset="0" style="stop-color:#729fcf;stop-opacity:0"/><stop id="stop5689-2" offset=".797" style="stop-color:#729fcf;stop-opacity:0"/><stop id="stop5685-7" offset=".923" style="stop-color:#3465a4;stop-opacity:1"/><stop id="stop5687-0" offset="1" style="stop-color:#729fcf;stop-opacity:1"/></linearGradient><radialGradient id="radialGradient5830-3" cx="143.75" cy="155.25" r="63.25" fx="143.75" fy="155.25" gradientTransform="matrix(1,0,0,1.4343292,0,-67.4296)" gradientUnits="userSpaceOnUse" xlink:href="#linearGradient5679-5-4"/><linearGradient id="linearGradient5679-5-4"><stop id="stop5681-5-6" offset="0" style="stop-color:#729fcf;stop-opacity:0"/><stop id="stop5689-3-3" offset=".797" style="stop-color:#729fcf;stop-opacity:0"/><stop id="stop5685-9-6" offset=".923" style="stop-color:#3465a4;stop-opacity:1"/><stop id="stop5687-6-3" offset="1" style="stop-color:#729fcf;stop-opacity:1"/></linearGradient><radialGradient id="radialGradient5832-3" cx="143.75" cy="155.25" r="63.25" fx="143.75" fy="155.25" gradientTransform="matrix(1,0,0,1.4343292,0,-67.4296)" gradientUnits="userSpaceOnUse" xlink:href="#linearGradient5679-5-8-4"/><linearGradient id="linearGradient5679-5-8-4"><stop id="stop5681-5-7-4" offset="0" style="stop-color:#729fcf;stop-opacity:0"/><stop id="stop5689-3-1-3" offset=".797" style="stop-color:#729fcf;stop-opacity:0"/><stop id="stop5685-9-9-9" offset=".923" style="stop-color:#3465a4;stop-opacity:1"/><stop id="stop5687-6-8-7" offset="1" style="stop-color:#729fcf;stop-opacity:1"/></linearGradient><radialGradient id="radialGradient4459-2" cx="143.75" cy="155.25" r="63.25" fx="143.75" fy="155.25" gradientTransform="matrix(1,0,1.4847868e-8,2.1959714,-2.3051312e-6,-185.67455)" gradientUnits="userSpaceOnUse" xlink:href="#linearGradient4461-5"/><linearGradient id="linearGradient4461-5"><stop id="stop4463-8" offset="0" style="stop-color:#729fcf;stop-opacity:0"/><stop id="stop4465-9" offset=".561" style="stop-color:#729fcf;stop-opacity:0"/><stop id="stop4467-0" offset=".894" style="stop-color:#3465a4;stop-opacity:1"/><stop id="stop4469-2" offset="1" style="stop-color:#729fcf;stop-opacity:1"/></linearGradient><radialGradient id="radialGradient5046-4" cx="171.73" cy="185.36" r="63.25" fx="171.73" fy="185.36" gradientTransform="matrix(1.3885081,2.4049667,-1.9885573,1.1480942,315.30084,-423.5348)" gradientUnits="userSpaceOnUse" xlink:href="#linearGradient5067-7"/><linearGradient id="linearGradient5067-7"><stop id="stop5069-6" offset="0" style="stop-color:#fff;stop-opacity:1"/><stop id="stop5197-5" offset=".5" style="stop-color:#555753;stop-opacity:1"/><stop id="stop5071-7" offset="1" style="stop-color:#888a85;stop-opacity:1"/></linearGradient><radialGradient id="radialGradient5187-1" cx="156.224" cy="162.193" r="28.286" fx="156.224" fy="162.193" gradientTransform="matrix(0.40368273,1.5065647,-2.3940061,0.64147189,481.44932,-183.82546)" gradientUnits="userSpaceOnUse" xlink:href="#linearGradient5181-3"/><linearGradient id="linearGradient5181-3"><stop id="stop5183-3" offset="0" style="stop-color:#fff;stop-opacity:1"/><stop id="stop5185-3" offset="1" style="stop-color:#fff;stop-opacity:0"/></linearGradient><filter id="filter5193-8" color-interpolation-filters="sRGB"><feGaussianBlur id="feGaussianBlur5195-5" stdDeviation="1.753"/></filter><linearGradient id="linearGradient5173-0"><stop id="stop5175-8" offset="0" style="stop-color:#000;stop-opacity:1"/><stop id="stop5177-7" offset="1" style="stop-color:#000;stop-opacity:0"/></linearGradient><radialGradient id="radialGradient5205-6" cx="153.334" cy="198.377" r="63.25" fx="153.334" fy="198.377" gradientTransform="matrix(2.0876608,-0.23323859,0.16414993,1.4692653,-199.33883,-57.328195)" gradientUnits="userSpaceOnUse" xlink:href="#linearGradient5199-3"/><linearGradient id="linearGradient5199-3"><stop id="stop5201-5" offset="0" style="stop-color:#000;stop-opacity:1"/><stop id="stop5203-0" offset="1" style="stop-color:#000;stop-opacity:0"/></linearGradient><filter id="filter4636-0-9-8" color-interpolation-filters="sRGB"><feGaussianBlur id="feGaussianBlur4638-1-1-0" stdDeviation="1.04"/></filter><linearGradient id="linearGradient3863-4-9-1"><stop id="stop3865-8-1-1" offset="0" style="stop-color:#2e3436;stop-opacity:1"/><stop id="stop3867-9-0-3" offset="1" style="stop-color:#000;stop-opacity:1"/></linearGradient><linearGradient id="linearGradient3984-4-5-9"><stop id="stop3986-7-8-3" offset="0" style="stop-color:#fff;stop-opacity:1"/><stop id="stop3988-3-7-4" offset="1" style="stop-color:#fff;stop-opacity:0"/></linearGradient><linearGradient id="linearGradient4079-2-4-5"><stop id="stop4081-6-8-0" offset="0" style="stop-color:#000;stop-opacity:1"/><stop id="stop4083-1-0-8" offset="1" style="stop-color:#000;stop-opacity:0"/></linearGradient><linearGradient id="linearGradient4138-43-6-9"><stop id="stop4140-0-1-9" offset="0" style="stop-color:#555753;stop-opacity:1"/><stop id="stop4142-18-0-0" offset="1" style="stop-color:#000;stop-opacity:1"/></linearGradient><linearGradient id="linearGradient4433-2-6"><stop id="stop4435-2-3" offset="0" style="stop-color:#fce94f;stop-opacity:1"/><stop id="stop4437-2-7" offset="1" style="stop-color:#c4a000;stop-opacity:1"/></linearGradient><linearGradient id="linearGradient4374-7-5-1"><stop id="stop4376-7-5-5" offset="0" style="stop-color:#fff;stop-opacity:1"/><stop id="stop4378-1-2-0" offset="1" style="stop-color:#fff;stop-opacity:0"/></linearGradient><filter id="filter4386-4-9-6" width="1.505" height="1.395" x="-.252" y="-.197" color-interpolation-filters="sRGB"><feGaussianBlur id="feGaussianBlur4388-9-0-50" stdDeviation="7.136"/></filter><radialGradient id="radialGradient4573-3-1-2" cx="167.279" cy="194.522" r="63.25" fx="167.279" fy="194.522" gradientTransform="matrix(1.4333818,0,0,1.4333818,-71.946329,-83.323838)" gradientUnits="userSpaceOnUse" xlink:href="#linearGradient4138-4-4-0-9-7"/><linearGradient id="linearGradient4138-4-4-0-9-7"><stop id="stop4140-6-3-6-6-4" offset="0" style="stop-color:#555753;stop-opacity:1"/><stop id="stop4142-1-5-6-2-0" offset="1" style="stop-color:#000;stop-opacity:1"/></linearGradient><linearGradient id="linearGradient4548-0-0-7"><stop id="stop4550-1-2-0" offset="0" style="stop-color:#888a85;stop-opacity:1"/><stop id="stop4552-7-9-0" offset="1" style="stop-color:#000;stop-opacity:1"/></linearGradient><filter id="filter4544-3-4-3" color-interpolation-filters="sRGB"><feGaussianBlur id="feGaussianBlur4546-0-3-4" stdDeviation=".94"/></filter><filter id="filter4976-0-5-9" color-interpolation-filters="sRGB"><feGaussianBlur id="feGaussianBlur4978-5-1-2" stdDeviation=".388"/></filter><linearGradient id="linearGradient4640-8-3-4-4"><stop id="stop4642-2-8-3-2" offset="0" style="stop-color:#888a85;stop-opacity:1"/><stop id="stop4648-34-5-1-5" offset=".5" style="stop-color:#000;stop-opacity:1"/><stop id="stop4644-9-4-4-2" offset="1" style="stop-color:#555753;stop-opacity:1"/></linearGradient><linearGradient id="linearGradient4640-0-2-5-9-4"><stop id="stop4642-6-7-1-4-3" offset="0" style="stop-color:#888a85;stop-opacity:1"/><stop id="stop4648-3-5-7-2-8" offset=".5" style="stop-color:#000;stop-opacity:1"/><stop id="stop4644-0-1-9-2-6" offset="1" style="stop-color:#555753;stop-opacity:1"/></linearGradient><linearGradient id="linearGradient4640-6-3-1-4-8"><stop id="stop4642-0-7-91-1-9" offset="0" style="stop-color:#888a85;stop-opacity:1"/><stop id="stop4648-6-3-9-2-2" offset=".5" style="stop-color:#000;stop-opacity:1"/><stop id="stop4644-1-6-3-8-2" offset="1" style="stop-color:#555753;stop-opacity:1"/></linearGradient><linearGradient id="linearGradient4640-0-4-4-4-9-1"><stop id="stop4642-6-1-8-2-2-8" offset="0" style="stop-color:#888a85;stop-opacity:1"/><stop id="stop4648-3-0-4-6-8-3" offset=".5" style="stop-color:#000;stop-opacity:1"/><stop id="stop4644-0-5-0-0-8-4" offset="1" style="stop-color:#555753;stop-opacity:1"/></linearGradient><radialGradient id="radialGradient4045" cx="133.94" cy="112.694" r="20.526" fx="133.94" fy="112.694" gradientTransform="matrix(-0.25078454,-0.25078456,0.14255498,-0.14255496,146.2943,216.05092)" gradientUnits="userSpaceOnUse" xlink:href="#linearGradient5173-0"/><linearGradient id="linearGradient4070" x1="148.953" x2="144.953" y1="174.019" y2="117.387" gradientTransform="translate(-16.000009,24.154051)" gradientUnits="userSpaceOnUse" xlink:href="#linearGradient4079-2-4-5"/><linearGradient id="linearGradient4073" x1="127.25" x2="151.188" y1="90.55" y2="179.888" gradientTransform="translate(-16.000009,24.154051)" gradientUnits="userSpaceOnUse" xlink:href="#linearGradient3984-4-5-9"/><linearGradient id="linearGradient4076" x1="212.301" x2="126.804" y1="327.489" y2="8.412" gradientTransform="matrix(0.82213435,0,0,0.82213435,9.818174,36.517696)" gradientUnits="userSpaceOnUse" xlink:href="#linearGradient3863-4-9-1"/><linearGradient id="linearGradient4095" x1="135.25" x2="135.25" y1="73.719" y2="78.404" gradientTransform="matrix(0.89655172,0,0,0.89655172,-257.10344,-341.29197)" gradientUnits="userSpaceOnUse" xlink:href="#linearGradient5289-1-1"/><linearGradient id="linearGradient4099" x1="135.25" x2="135.25" y1="70.937" y2="79.799" gradientTransform="matrix(0.89655172,0,0,1,-1.103457,24.154047)" gradientUnits="userSpaceOnUse" xlink:href="#linearGradient5289-5"/><linearGradient id="linearGradient4110" x1="172.543" x2="154.543" y1="287.235" y2="47.946" gradientUnits="userSpaceOnUse" xlink:href="#linearGradient3833-9-6"/><linearGradient id="linearGradient4112" x1="144" x2="144" y1="161.866" y2="-9.621" gradientTransform="translate(-16.000009,20.154047)" gradientUnits="userSpaceOnUse" xlink:href="#linearGradient5025-7"/><radialGradient id="radialGradient4114" cx="130.024" cy="132.628" r="68" fx="130.024" fy="132.628" gradientTransform="matrix(3.1830303,0,0,0.18355822,-314.35637,45.946228)" gradientUnits="userSpaceOnUse" xlink:href="#linearGradient3954-8"/><radialGradient id="radialGradient4116" cx="129.131" cy="81.225" r="66.987" fx="129.131" fy="81.225" gradientTransform="matrix(2.6501077,0.62319481,-0.52518661,2.6509606,-174.55379,-216.95687)" gradientUnits="userSpaceOnUse" xlink:href="#linearGradient4004-0"/><radialGradient id="radialGradient4118" cx="144" cy="164" r="68.5" fx="144" fy="164" gradientTransform="matrix(3.756943,1.0066699,-0.24600907,0.91811836,-356.65431,-131.53187)" gradientUnits="userSpaceOnUse" xlink:href="#linearGradient5079-6-6"/><linearGradient id="linearGradient4126" x1="154.812" x2="154.812" y1="97.728" y2="54.148" gradientTransform="translate(-16.000009,20.154047)" gradientUnits="userSpaceOnUse" xlink:href="#linearGradient5229-9"/><linearGradient id="linearGradient4132" x1="160.25" x2="183.75" y1="218.102" y2="216.5" gradientUnits="userSpaceOnUse" xlink:href="#linearGradient4098"/><radialGradient id="radialGradient4160" cx="144" cy="-70" r="47" fx="144" fy="-70" gradientTransform="matrix(0.88259395,-0.50956586,1.0491358,1.8171565,74.345966,364.73249)" gradientUnits="userSpaceOnUse" xlink:href="#linearGradient4548-0-0-7"/><radialGradient id="radialGradient4162" cx="167.279" cy="194.522" r="63.25" fx="167.279" fy="194.522" gradientTransform="matrix(1.330222,0,0,1.330222,-54.689881,-63.257019)" gradientUnits="userSpaceOnUse" xlink:href="#linearGradient4138-43-6-9"/><radialGradient id="radialGradient4172" cx="144" cy="148.764" r="15.375" fx="144" fy="148.764" gradientTransform="matrix(0.8660254,-0.5,1.4308943,2.4783816,-197.03287,-110.81938)" gradientUnits="userSpaceOnUse" xlink:href="#linearGradient4374-7-5-1"/><radialGradient id="radialGradient4175" cx="161.5" cy="161.5" r="37" fx="161.5" fy="161.5" gradientTransform="matrix(0.87979688,-0.60209586,0.67492346,0.98621436,-105.58734,123.61892)" gradientUnits="userSpaceOnUse" xlink:href="#linearGradient4433-2-6"/><radialGradient id="radialGradient4178" cx="105.764" cy="101.544" r="1.906" fx="105.764" fy="101.544" gradientTransform="matrix(2.0137092,0,0,2.0137092,-107.21421,-102.93646)" gradientUnits="userSpaceOnUse" xlink:href="#linearGradient4640-8-3-4-4"/><radialGradient id="radialGradient4180" cx="105.764" cy="101.544" r="1.906" fx="105.764" fy="101.544" gradientTransform="matrix(2.0137092,0,0,2.0137092,-107.21421,-102.93646)" gradientUnits="userSpaceOnUse" xlink:href="#linearGradient4640-0-2-5-9-4"/><radialGradient id="radialGradient4182" cx="105.764" cy="101.544" r="1.906" fx="105.764" fy="101.544" gradientTransform="matrix(2.0137092,0,0,2.0137092,-107.21421,-102.93646)" gradientUnits="userSpaceOnUse" xlink:href="#linearGradient4640-6-3-1-4-8"/><radialGradient id="radialGradient4184" cx="105.764" cy="101.544" r="1.906" fx="105.764" fy="101.544" gradientTransform="matrix(2.0137092,0,0,2.0137092,-107.21421,-102.93646)" gradientUnits="userSpaceOnUse" xlink:href="#linearGradient4640-0-4-4-4-9-1"/><linearGradient id="linearGradient4294" x1="172.566" x2="164.824" y1="221.226" y2="202.333" gradientUnits="userSpaceOnUse" xlink:href="#linearGradient5618"/></defs><g id="layer5" transform="translate(0,-44)" style="display:inline"><path id="rect5700-4" d="m 107.72314,223.5 c -3.02968,0 -6.52772,2.19942 -7.83691,4.93164 L 86.653809,256.06836 C 85.344619,258.80058 86.724707,261 89.754394,261 l 108.959966,0 c 3.02968,0 4.40977,-2.19942 3.10058,-4.93164 L 188.58252,228.43164 C 187.27333,225.69942 183.77529,223.5 180.74561,223.5 l -73.02247,0 z" transform="matrix(1.0725052,0,0,1,-26.457747,20.154047)" style="color:#000;fill:#000;fill-opacity:1;fill-rule:nonzero;stroke:none;stroke-width:2;marker:none;visibility:visible;display:inline;overflow:visible;filter:url(#filter6280);enable-background:accumulate"/><path id="rect5700" d="m 97.5,213 c -3.878,0 -8.355488,2.81526 -10.03125,6.3125 l -16.9375,35.375 C 68.855488,258.18474 70.622,261 74.5,261 l 139.46875,0 c 3.878,0 5.64451,-2.81526 3.96875,-6.3125 L 201,219.3125 C 199.32424,215.81526 194.84675,213 190.96875,213 L 97.5,213 z" transform="matrix(1.0537292,0,0,0.98829685,-23.7496,28.427684)" style="opacity:.3;color:#000;fill:#000;fill-opacity:1;fill-rule:nonzero;stroke:none;stroke-width:2;marker:none;visibility:visible;display:inline;overflow:visible;filter:url(#filter5733-3);enable-background:accumulate"/><path id="rect2846-7-2" d="m 89.999991,72.154047 c -9.65761,0 -18.047086,5.222964 -22.53125,13 l -7.46875,18.000003 c -2.537682,4.4069 -4,9.5294 -4,15 l 0,132 c 0,16.62 13.38,30 30,30 l 83.999999,0 c 16.62,0 30,-13.38 30,-30 l 0,-132 c 0,-5.4706 -1.46232,-10.5931 -4,-15 l -7.46875,-18.000003 c -4.48416,-7.777036 -12.87365,-13 -22.53125,-13 l -75.999999,0 z" style="color:#000;fill:url(#linearGradient4126);fill-opacity:1;fill-rule:nonzero;stroke:none;stroke-width:1.10000002;marker:none;visibility:visible;display:inline;overflow:visible;enable-background:accumulate"/><path id="path3831" d="M 102,78.5 C 91.015379,78.5 82.5,87.015379 82.5,98 l 0,132 c 0,10.98462 8.515379,19.5 19.5,19.5 l 84,0 c 10.98462,0 19.5,-8.51538 19.5,-19.5 l 0,-132 c 0,-10.984621 -8.51538,-19.5 -19.5,-19.5 l -84,0 z" transform="translate(-16.000009,20.15405)" style="opacity:.94444442;color:#000;fill:url(#linearGradient4110);fill-opacity:1;stroke:none;stroke-width:3;marker:none;visibility:visible;display:inline;overflow:visible;filter:url(#filter5381-8-4);enable-background:accumulate"/><path id="rect2846-7-2-2" d="m 89.999991,72.154047 c -9.65761,0 -18.047086,5.222964 -22.53125,13 l -7.46875,18.000003 c -2.537682,4.4069 -4,9.5294 -4,15 l 0,132 c 0,16.62 13.38,30 30,30 l 83.999999,0 c 16.62,0 30,-13.38 30,-30 l 0,-132 c 0,-5.4706 -1.46232,-10.5931 -4,-15 l -7.46875,-18.000003 c -4.48416,-7.777036 -12.87365,-13 -22.53125,-13 l -75.999999,0 z" style="color:#000;fill:none;stroke:url(#linearGradient4112);stroke-width:3;stroke-miterlimit:4;stroke-dasharray:none;marker:none;visibility:visible;display:inline;overflow:visible;filter:url(#filter5021-1);enable-background:accumulate"/><path id="rect2846-7-2-2-5-8" d="m 205.39135,78.464464 -6.7429,-15.878679 m -109.296901,0 -6.742891,15.878679" transform="matrix(1.0224282,0,0,1,-19.229664,20.154046)" style="color:#000;fill:none;stroke:url(#radialGradient4114);stroke-width:2.96691322;stroke-linecap:round;marker:none;visibility:visible;display:inline;overflow:visible;filter:url(#filter3966-2);enable-background:accumulate"/><path id="path3997" d="m 106,56.25 c -8.111998,0 -15.056294,4.35952 -18.8125,10.84375 -0.0074,0.01276 -0.02388,0.01848 -0.03125,0.03125 L 82.8125,84.65625 C 88.292365,80.932121 94.882098,78.75 102,78.75 l 84,0 c 7.1179,0 13.70763,2.182121 19.1875,5.90625 L 200.84375,67.125 200.8125,67.09375 C 197.0563,60.609522 190.11199,56.25 182,56.25 l -76,0 z" transform="matrix(1,0,0,1.1394418,-16.000009,7.5407194)" style="opacity:.95299144;color:#000;fill:url(#radialGradient4116);fill-opacity:1;stroke:none;stroke-width:3;marker:none;visibility:visible;display:inline;overflow:visible;filter:url(#filter3999-2);enable-background:accumulate"/><path id="path5077" d="M 102,72.5 C 87.795162,72.5 76.5,83.795162 76.5,98 l 0,132 c 0,14.20484 11.295162,25.5 25.5,25.5 l 84,0 c 14.20484,0 25.5,-11.29516 25.5,-25.5 l 0,-132 C 211.5,83.795162 200.20484,72.5 186,72.5 l -84,0 z" transform="translate(-16.000009,20.154047)" style="color:#000;fill:none;stroke:url(#radialGradient4118);stroke-width:4;stroke-miterlimit:4;stroke-dasharray:none;marker:none;visibility:visible;display:inline;overflow:visible;filter:url(#filter5241-4-7);enable-background:accumulate"/><rect id="rect2846-8-5" width="104" height="8" x="76" y="96.154" rx="7.845" ry="4" style="color:#000;fill:url(#linearGradient4099);fill-opacity:1;fill-rule:nonzero;stroke:none;stroke-width:3;marker:none;visibility:visible;display:inline;overflow:visible;enable-background:accumulate"/><rect id="rect2846-8-5-3" width="104" height="7.172" x="-180" y="-276.74" rx="7.845" ry="3.586" transform="scale(-1,-1)" style="opacity:.53418801;color:#000;fill:url(#linearGradient4095);fill-opacity:1;fill-rule:nonzero;stroke:none;stroke-width:3;marker:none;visibility:visible;display:inline;overflow:visible;enable-background:accumulate"/><path id="path4035-2" d="m 87.25,86.5 a 8.5,8.5 0 1 1 -17,0 8.5,8.5 0 1 1 17,0 z" transform="matrix(0.64680538,-0.64680538,0.29716347,0.29716347,-8.6405723,134.26034)" style="opacity:.67094014;color:#000;fill:url(#linearGradient3620);fill-opacity:1;stroke:none;stroke-width:4;marker:none;visibility:visible;display:inline;overflow:visible;enable-background:accumulate"/><path id="path4035" d="m 87.25,86.5 a 8.5,8.5 0 1 1 -17,0 8.5,8.5 0 1 1 17,0 z" transform="matrix(0.25300786,-0.25300786,0.11624006,0.11624006,34.336318,115.21412)" style="color:#000;fill:url(#linearGradient3622);fill-opacity:1;stroke:none;stroke-width:4;marker:none;visibility:visible;display:inline;overflow:visible;enable-background:accumulate"/><path id="path4035-0" d="m 87.25,86.5 a 8.5,8.5 0 1 1 -17,0 8.5,8.5 0 1 1 17,0 z" transform="matrix(0.32617031,-0.32617031,0.14985327,0.14985327,150.35177,278.75267)" style="opacity:.49145298;color:#000;fill:url(#linearGradient3624);fill-opacity:1;stroke:none;stroke-width:4;marker:none;visibility:visible;display:inline;overflow:visible;enable-background:accumulate"/><path id="path6808-6" d="m 96.03125,217.5 c -1.428508,0 -2.53125,1.10274 -2.53125,2.53125 l 0,15.9375 c 0,1.42851 1.102742,2.53125 2.53125,2.53125 l 11.9375,0 c 1.42851,0 2.53125,-1.10274 2.53125,-2.53125 l 0,-15.9375 c 0,-1.42851 -1.10274,-2.53125 -2.53125,-2.53125 l -11.9375,0 z" transform="translate(-16.000009,20.154047)" style="opacity:.41025642;color:#000;fill:none;stroke:#fff;stroke-width:1;stroke-miterlimit:4;stroke-dasharray:none;marker:none;visibility:visible;display:inline;overflow:visible;enable-background:accumulate"/><path id="path4490-6" d="m 88.427711,241.71655 c -3.48689,0 -4.14453,5.10174 -2.18297,5.10174 1.96129,0 5.66999,-5.10174 2.18297,-5.10174 z m -5.37155,0.78488 c -0.0558,-1.8e-4 -0.12219,0.005 -0.18396,0.0122 -1.975861,0.24031 -1.27283,3.45954 -0.22075,3.51972 1.01879,0.0583 2.13304,-3.5264 0.40471,-3.53198 z m -3.556509,1.18959 c -0.08665,0.009 -0.170563,0.0343 -0.269805,0.0736 -1.588115,0.62799 -0.251958,3.21565 0.637723,3.04142 0.83474,-0.16308 0.93179,-3.2472 -0.367918,-3.11501 z m -2.575399,2.12164 c -0.107692,0.0167 -0.211887,0.0738 -0.331122,0.15943 -1.271288,0.91369 0.429363,3.11394 1.177326,2.77162 0.677837,-0.31036 0.194823,-3.09244 -0.846204,-2.93105 z m 7.027158,1.79052 c -2.69104,0.089 -5.996977,1.44194 -6.585663,4.01027 -0.671116,2.92588 2.757612,6.9781 6.340393,6.9781 1.76254,0 3.80161,-1.54327 4.18195,-3.50745 0.29049,-1.4978 -3.41996,-0.90523 -3.28669,0.0858 0.15967,1.18794 -0.89299,1.77145 -1.92542,1.00563 -3.286668,-2.43786 5.44408,-3.64738 4.86873,-6.97811 -0.19401,-1.1231 -1.75205,-1.65518 -3.5933,-1.59429 z" style="opacity:.41025642;fill:#fff;fill-opacity:1;fill-rule:nonzero;stroke:none;display:inline;enable-background:new"/><path id="path6808" d="m 96.03125,217.5 c -1.428508,0 -2.53125,1.10274 -2.53125,2.53125 l 0,15.9375 c 0,1.42851 1.102742,2.53125 2.53125,2.53125 l 11.9375,0 c 1.42851,0 2.53125,-1.10274 2.53125,-2.53125 l 0,-15.9375 c 0,-1.42851 -1.10274,-2.53125 -2.53125,-2.53125 l -11.9375,0 z" transform="translate(-16.000009,20.154047)" style="opacity:.6837607;color:#000;fill:none;stroke:#d3d7cf;stroke-width:1;stroke-miterlimit:4;stroke-dasharray:none;marker:none;visibility:visible;display:inline;overflow:visible;enable-background:accumulate"/><path id="path4490" d="m 88.427711,240.71655 c -3.48689,0 -4.14453,5.10174 -2.18297,5.10174 1.96129,0 5.66999,-5.10174 2.18297,-5.10174 z m -5.37155,0.78488 c -0.0558,-1.8e-4 -0.12219,0.005 -0.18396,0.0122 -1.975861,0.24031 -1.27283,3.45954 -0.22075,3.51972 1.01879,0.0583 2.13304,-3.5264 0.40471,-3.53198 z m -3.556509,1.18959 c -0.08665,0.009 -0.170563,0.0343 -0.269805,0.0736 -1.588115,0.62799 -0.251958,3.21565 0.637723,3.04142 0.83474,-0.16308 0.93179,-3.2472 -0.367918,-3.11501 z m -2.575399,2.12164 c -0.107692,0.0167 -0.211887,0.0738 -0.331122,0.15943 -1.271288,0.91369 0.429363,3.11394 1.177326,2.77162 0.677837,-0.31036 0.194823,-3.09244 -0.846204,-2.93105 z m 7.027158,1.79052 c -2.69104,0.089 -5.996977,1.44194 -6.585663,4.01027 -0.671116,2.92588 2.757612,6.9781 6.340393,6.9781 1.76254,0 3.80161,-1.54327 4.18195,-3.50745 0.29049,-1.4978 -3.41996,-0.90523 -3.28669,0.0858 0.15967,1.18794 -0.89299,1.77145 -1.92542,1.00563 -3.286668,-2.43786 5.44408,-3.64738 4.86873,-6.97811 -0.19401,-1.1231 -1.75205,-1.65518 -3.5933,-1.59429 z" style="opacity:.6837607;fill:#d3d7cf;fill-opacity:1;fill-rule:nonzero;stroke:none;display:inline;enable-background:new"/><path id="path5385-1" d="m 183.75,216.5 a 11.75,11.75 0 1 1 -23.5,0 11.75,11.75 0 1 1 23.5,0 z" mask="url(#mask4358)" transform="matrix(1.8723405,0,0,1.8723404,-158.04258,-159.20765)" style="color:#000;fill:url(#linearGradient4294);fill-opacity:1;fill-rule:nonzero;stroke:none;stroke-width:4;marker:none;visibility:visible;display:inline;overflow:visible;enable-background:accumulate"/><path id="path5385" d="m 183.75,216.5 a 11.75,11.75 0 1 1 -23.5,0 11.75,11.75 0 1 1 23.5,0 z" transform="matrix(1.5319143,0,0,1.5319142,-99.489273,-85.505383)" style="color:#000;fill:url(#linearGradient4132);fill-opacity:1;fill-rule:nonzero;stroke:none;stroke-width:4;marker:none;visibility:visible;display:inline;overflow:visible;enable-background:accumulate"/><path id="path5385-7" d="m 183.75,216.5 a 11.75,11.75 0 1 1 -23.5,0 11.75,11.75 0 1 1 23.5,0 z" transform="matrix(1.53519,0,0,1.5351899,-100.05271,-86.214573)" style="color:#000;fill:none;stroke:url(#radialGradient3572);stroke-width:1.30277038;stroke-miterlimit:4;stroke-dasharray:none;marker:none;visibility:visible;display:inline;overflow:visible;filter:url(#filter4677-3);enable-background:accumulate"/><path id="path5385-7-3" d="m 183.75,216.5 a 11.75,11.75 0 1 1 -23.5,0 11.75,11.75 0 1 1 23.5,0 z" transform="matrix(-1.6598576,0,0,-1.6598574,449.49547,605.51318)" style="opacity:.70512821;color:#000;fill:none;stroke:url(#radialGradient3574);stroke-width:.60246134;stroke-miterlimit:4;stroke-dasharray:none;marker:none;visibility:visible;display:inline;overflow:visible;filter:url(#filter5668);enable-background:accumulate"/><path id="path3861-63" d="m 127.99999,113.15405 c -10.18163,0 -19.66791,2.94269 -27.6875,8 l -8.312499,0 c -4.432,0 -8,3.568 -8,8 l 0,8.3125 c -5.057316,8.01959 -8,17.50587 -8,27.6875 0,10.18163 2.942684,19.66791 8,27.6875 l 0,8.3125 c 0,4.432 3.568,8 8,8 l 8.312499,0 c 8.01959,5.05732 17.50587,8 27.6875,8 10.18163,0 19.66791,-2.94268 27.6875,-8 l 8.3125,0 c 4.432,0 8,-3.568 8,-8 l 0,-8.3125 c 5.05732,-8.01959 8,-17.50587 8,-27.6875 0,-10.18163 -2.94268,-19.66791 -8,-27.6875 l 0,-8.3125 c 0,-4.432 -3.568,-8 -8,-8 l -8.3125,0 c -8.01959,-5.05731 -17.50587,-8 -27.6875,-8 z" style="color:#000;fill:#000;fill-opacity:1;fill-rule:nonzero;stroke:none;stroke-width:3;marker:none;visibility:visible;display:inline;overflow:visible;filter:url(#filter4636-0-9-8);enable-background:accumulate"/><path id="path3861" d="m 127.99999,112.15405 c -10.18163,0 -19.66791,2.94269 -27.6875,8 l -8.312499,0 c -4.432,0 -8,3.568 -8,8 l 0,8.3125 c -5.057316,8.01959 -8,17.50587 -8,27.6875 0,10.18163 2.942684,19.66791 8,27.6875 l 0,8.3125 c 0,4.432 3.568,8 8,8 l 8.312499,0 c 8.01959,5.05732 17.50587,8 27.6875,8 10.18163,0 19.66791,-2.94268 27.6875,-8 l 8.3125,0 c 4.432,0 8,-3.568 8,-8 l 0,-8.3125 c 5.05732,-8.01959 8,-17.50587 8,-27.6875 0,-10.18163 -2.94268,-19.66791 -8,-27.6875 l 0,-8.3125 c 0,-4.432 -3.568,-8 -8,-8 l -8.3125,0 c -8.01959,-5.05731 -17.50587,-8 -27.6875,-8 z" style="color:#000;fill:url(#linearGradient4076);fill-opacity:1;fill-rule:nonzero;stroke:none;stroke-width:3;marker:none;visibility:visible;display:inline;overflow:visible;enable-background:accumulate"/><path id="path3959" d="m 127.99999,113.21655 c -9.97742,0 -19.26748,2.88864 -27.125,7.84375 a 1.0599505,1.0599505 0 0 1 -0.5625,0.15625 l -8.312499,0 c -3.86318,0 -6.9375,3.07432 -6.9375,6.9375 l 0,8.3125 a 1.0599505,1.0599505 0 0 1 -0.15625,0.5625 c -4.955113,7.85752 -7.84375,17.14758 -7.84375,27.125 0,9.97742 2.888637,19.26748 7.84375,27.125 a 1.0599505,1.0599505 0 0 1 0.15625,0.5625 l 0,8.3125 c 0,2.17304 0.96129,4.10792 2.5,5.375 -0.95167,-1.18665 -1.5,-2.7172 -1.5,-4.375 l 0,-8.3125 a 1.0599505,1.0599505 0 0 0 -0.15625,-0.5625 c -4.955113,-7.85752 -7.84375,-17.14758 -7.84375,-27.125 0,-9.97742 2.888637,-19.26748 7.84375,-27.125 a 1.0599505,1.0599505 0 0 0 0.15625,-0.5625 l 0,-8.3125 c 0,-3.86318 3.07432,-6.9375 6.9375,-6.9375 l 8.312499,0 a 1.0599505,1.0599505 0 0 0 0.5625,-0.15625 c 7.85752,-4.95511 17.14758,-7.84375 27.125,-7.84375 9.97742,0 19.26748,2.88864 27.125,7.84375 a 1.0599505,1.0599505 0 0 0 0.5625,0.15625 l 8.3125,0 c 1.6578,0 3.18835,0.54833 4.375,1.5 -1.26708,-1.5387 -3.20196,-2.5 -5.375,-2.5 l -8.3125,0 a 1.0599505,1.0599505 0 0 1 -0.5625,-0.15625 c -7.85752,-4.95511 -17.14758,-7.84375 -27.125,-7.84375 z" style="opacity:.2;color:#000;fill:url(#linearGradient4073);fill-opacity:1;fill-rule:nonzero;stroke:none;stroke-width:3;marker:none;visibility:visible;display:inline;overflow:visible;enable-background:accumulate"/><path id="path3861-8" d="m 169.18749,122.0603 c 1.13944,1.38182 1.8125,3.15475 1.8125,5.09375 l 0,8.3125 c 5.05732,8.01959 8,17.50587 8,27.6875 0,10.18163 -2.94268,19.66791 -8,27.6875 l 0,8.3125 c 0,4.432 -3.568,8 -8,8 l -8.3125,0 c -8.01959,5.05732 -17.50587,8 -27.6875,8 -10.18163,0 -19.66791,-2.94268 -27.687499,-8 l -8.3125,0 c -1.939,0 -3.71193,-0.67306 -5.09375,-1.8125 1.46512,1.71845 3.6482,2.8125 6.09375,2.8125 l 8.312499,0 c 8.01959,5.05732 17.50587,8 27.6875,8 10.18163,0 19.66791,-2.94268 27.6875,-8 l 8.3125,0 c 4.432,0 8,-3.568 8,-8 l 0,-8.3125 c 5.05732,-8.01959 8,-17.50587 8,-27.6875 0,-10.18163 -2.94268,-19.66791 -8,-27.6875 l 0,-8.3125 c 0,-2.44555 -1.09405,-4.62863 -2.8125,-6.09375 z" style="color:#000;fill:url(#linearGradient4070);fill-opacity:1;fill-rule:nonzero;stroke:none;stroke-width:3;marker:none;visibility:visible;display:inline;overflow:visible;enable-background:accumulate"/><path id="path3861-6" d="m 207,155.25 a 63.25,63.25 0 1 1 -126.5,0 63.25,63.25 0 1 1 126.5,0 z" transform="matrix(0.69565202,0,0,0.69565202,28.000013,56.154084)" style="color:#000;fill:url(#radialGradient4162);fill-opacity:1;fill-rule:nonzero;stroke:none;stroke-width:3;marker:none;visibility:visible;display:inline;overflow:visible;enable-background:accumulate"/><path id="path3861-6-4" d="m 127.99999,127.15405 c -20.43453,0 -36.999999,16.56547 -36.999999,37 0,20.43453 16.565469,37 36.999999,37 20.43453,0 37,-16.56547 37,-37 0,-20.43453 -16.56547,-37 -37,-37 z" style="color:#000;fill:url(#radialGradient4175);fill-opacity:1;fill-rule:nonzero;stroke:#2e3436;stroke-width:1;stroke-miterlimit:4;stroke-dasharray:none;marker:none;visibility:visible;display:inline;overflow:visible;enable-background:accumulate"/><path id="path3861-6-0" d="m 105.99999,126.04893 c -4.68488,2.70482 -8.687399,6.1289 -11.940139,10.06907 10.117379,5.97835 20.580459,16.8964 28.743989,31.03605 8.16353,14.13965 12.3873,28.65997 12.50601,40.41105 5.03866,-0.84687 10.00526,-2.60112 14.69014,-5.30593 4.68488,-2.70482 8.6874,-6.1289 11.94014,-10.06907 -10.11738,-5.97835 -20.58046,-16.8964 -28.74399,-31.03605 -8.16353,-14.13965 -12.3873,-28.65997 -12.50601,-40.41104 -5.03866,0.84686 -10.00526,2.60111 -14.69014,5.30592 z" style="opacity:.55430711;color:#000;fill:url(#radialGradient4172);fill-opacity:1;fill-rule:nonzero;stroke:none;stroke-width:3;marker:none;visibility:visible;display:inline;overflow:visible;filter:url(#filter4386-4-9-6);enable-background:accumulate"/><path id="path3861-6-1-6" d="m 207,155.25 a 63.25,63.25 0 1 1 -126.5,0 63.25,63.25 0 1 1 126.5,0 z" transform="matrix(0.26877505,0,0,0.26877505,89.363581,120.42675)" style="color:#000;fill:url(#radialGradient4573-3-1-2);fill-opacity:1;fill-rule:nonzero;stroke:none;stroke-width:3;marker:none;visibility:visible;display:inline;overflow:visible;enable-background:accumulate"/><path id="path3861-6-3" d="m 127.99999,117.15407 c -25.92184,0 -46.999989,21.07814 -46.999989,46.99999 0,25.92184 21.078149,46.99999 46.999989,46.99999 25.92184,0 46.99999,-21.07815 46.99999,-46.99999 0,-25.92185 -21.07815,-46.99999 -46.99999,-46.99999 z m 0,6 c 22.6792,0 40.99999,18.32078 40.99999,40.99999 0,22.6792 -18.32079,40.99999 -40.99999,40.99999 -22.6792,0 -40.999989,-18.32079 -40.999989,-40.99999 0,-22.67921 18.320789,-40.99999 40.999989,-40.99999 z" style="font-size:medium;font-style:normal;font-variant:normal;font-weight:400;font-stretch:normal;text-indent:0;text-align:start;text-decoration:none;line-height:normal;letter-spacing:normal;word-spacing:normal;text-transform:none;direction:ltr;block-progression:tb;writing-mode:lr-tb;text-anchor:start;color:#000;fill:url(#radialGradient4160);fill-opacity:1;stroke:none;stroke-width:8.625;marker:none;visibility:visible;display:inline;overflow:visible;enable-background:accumulate;font-family:Andale Mono;-inkscape-font-specification:Andale Mono"/><path id="path3861-6-3-5" d="m 127.99999,116.15407 c -25.92184,0 -46.999989,21.07814 -46.999989,46.99999 0,25.92184 21.078149,46.99999 46.999989,46.99999 25.92184,0 46.99999,-21.07815 46.99999,-46.99999 0,-25.92185 -21.07815,-46.99999 -46.99999,-46.99999 z m 0,6 c 22.6792,0 40.99999,18.32078 40.99999,40.99999 0,22.6792 -18.32079,40.99999 -40.99999,40.99999 -22.6792,0 -40.999989,-18.32079 -40.999989,-40.99999 0,-22.67921 18.320789,-40.99999 40.999989,-40.99999 z" style="font-size:medium;font-style:normal;font-variant:normal;font-weight:400;font-stretch:normal;text-indent:0;text-align:start;text-decoration:none;line-height:normal;letter-spacing:normal;word-spacing:normal;text-transform:none;direction:ltr;block-progression:tb;writing-mode:lr-tb;text-anchor:start;color:#000;fill:none;stroke:#000;stroke-width:3;stroke-miterlimit:4;stroke-dasharray:none;marker:none;visibility:visible;display:inline;overflow:visible;filter:url(#filter4544-3-4-3);enable-background:accumulate;font-family:Andale Mono;-inkscape-font-specification:Andale Mono"/><path id="path4089-3" d="m 108,102.15625 a 1.90625,1.90625 0 1 1 -3.8125,0 1.90625,1.90625 0 1 1 3.8125,0 z" transform="matrix(1.327868,0,0,1.327868,-49.409756,-6.9647156)" style="color:#000;fill:#000;fill-opacity:1;fill-rule:nonzero;stroke:none;stroke-width:3;marker:none;visibility:visible;display:inline;overflow:visible;filter:url(#filter4976-0-5-9);enable-background:accumulate"/><path id="path4089-6-7" d="m 108,102.15625 a 1.90625,1.90625 0 1 1 -3.8125,0 1.90625,1.90625 0 1 1 3.8125,0 z" transform="matrix(1.327868,0,0,1.327868,23.590246,-6.9647146)" style="color:#000;fill:#000;fill-opacity:1;fill-rule:nonzero;stroke:none;stroke-width:3;marker:none;visibility:visible;display:inline;overflow:visible;filter:url(#filter4976-0-5-9);enable-background:accumulate"/><path id="path4089-77-6" d="m 108,102.15625 a 1.90625,1.90625 0 1 1 -3.8125,0 1.90625,1.90625 0 1 1 3.8125,0 z" transform="matrix(1.327868,0,0,1.327868,-49.409754,65.035285)" style="color:#000;fill:#000;fill-opacity:1;fill-rule:nonzero;stroke:none;stroke-width:3;marker:none;visibility:visible;display:inline;overflow:visible;filter:url(#filter4976-0-5-9);enable-background:accumulate"/><path id="path4089-6-0-6" d="m 108,102.15625 a 1.90625,1.90625 0 1 1 -3.8125,0 1.90625,1.90625 0 1 1 3.8125,0 z" transform="matrix(1.327868,0,0,1.327868,23.590251,65.035285)" style="color:#000;fill:#000;fill-opacity:1;fill-rule:nonzero;stroke:none;stroke-width:3;marker:none;visibility:visible;display:inline;overflow:visible;filter:url(#filter4976-0-5-9);enable-background:accumulate"/><path id="path4089" d="m 108,102.15625 a 1.90625,1.90625 0 1 1 -3.8125,0 1.90625,1.90625 0 1 1 3.8125,0 z" transform="matrix(1.327868,0,0,1.327868,-49.409756,-7.9647156)" style="color:#000;fill:url(#radialGradient4178);fill-opacity:1;fill-rule:nonzero;stroke:none;stroke-width:3;marker:none;visibility:visible;display:inline;overflow:visible;enable-background:accumulate"/><path id="path4089-6" d="m 108,102.15625 a 1.90625,1.90625 0 1 1 -3.8125,0 1.90625,1.90625 0 1 1 3.8125,0 z" transform="matrix(1.327868,0,0,1.327868,23.590246,-7.9647146)" style="color:#000;fill:url(#radialGradient4180);fill-opacity:1;fill-rule:nonzero;stroke:none;stroke-width:3;marker:none;visibility:visible;display:inline;overflow:visible;enable-background:accumulate"/><path id="path4089-77" d="m 108,102.15625 a 1.90625,1.90625 0 1 1 -3.8125,0 1.90625,1.90625 0 1 1 3.8125,0 z" transform="matrix(1.327868,0,0,1.327868,-49.409754,64.035285)" style="color:#000;fill:url(#radialGradient4182);fill-opacity:1;fill-rule:nonzero;stroke:none;stroke-width:3;marker:none;visibility:visible;display:inline;overflow:visible;enable-background:accumulate"/><path id="path4089-6-0" d="m 108,102.15625 a 1.90625,1.90625 0 1 1 -3.8125,0 1.90625,1.90625 0 1 1 3.8125,0 z" transform="matrix(1.327868,0,0,1.327868,23.590251,64.035285)" style="color:#000;fill:url(#radialGradient4184);fill-opacity:1;fill-rule:nonzero;stroke:none;stroke-width:3;marker:none;visibility:visible;display:inline;overflow:visible;enable-background:accumulate"/><path id="path3861-6-1-6-6" d="m 207,155.25 a 63.25,63.25 0 1 1 -126.5,0 63.25,63.25 0 1 1 126.5,0 z" transform="matrix(0.2213436,0,0,0.2213436,96.181851,127.79047)" style="color:#000;fill:url(#radialGradient5205-6);fill-opacity:1;fill-rule:nonzero;stroke:none;stroke-width:3;marker:none;visibility:visible;display:inline;overflow:visible;enable-background:accumulate"/><path id="path3861-6-1" d="m 207,155.25 a 63.25,63.25 0 1 1 -126.5,0 63.25,63.25 0 1 1 126.5,0 z" transform="matrix(-0.18972328,0,0,-0.18972328,155.27271,190.60861)" style="color:#000;fill:url(#radialGradient5046-4);fill-opacity:1;fill-rule:nonzero;stroke:none;stroke-width:3;marker:none;visibility:visible;display:inline;overflow:visible;enable-background:accumulate"/><path id="path3861-6-1-9" d="m 200.32252,183.53626 c -9.25285,18.50569 -26.97169,31.316 -47.44512,34.3017 l -9.1274,-83.6713 56.57252,49.3696 z" transform="matrix(-0.18972328,0,0,-0.18972328,155.27271,190.60861)" style="opacity:.61965811;color:#000;fill:url(#radialGradient5187-1);fill-opacity:1;fill-rule:nonzero;stroke:none;stroke-width:3;marker:none;visibility:visible;display:inline;overflow:visible;filter:url(#filter5193-8);enable-background:accumulate"/><path id="path3861-6-1-9-8" d="m 135.78853,170.28307 c -0.88919,0.75863 -1.88446,1.38328 -2.95425,1.85415 l -4.83429,-6.98315 7.78854,5.129 z" style="opacity:.10256407;color:#000;fill:url(#radialGradient4045);fill-opacity:1;fill-rule:nonzero;stroke:none;stroke-width:3;marker:none;visibility:visible;display:inline;overflow:visible;enable-background:accumulate"/><path id="path3861-6-5" d="m 207,155.25 a 63.25,63.25 0 1 1 -126.5,0 63.25,63.25 0 1 1 126.5,0 z" transform="matrix(1.9547593,0.52377617,-0.52377617,1.9547593,-71.680399,-211.61514)" style="opacity:.12000002;color:#000;fill:url(#radialGradient5828-8);fill-opacity:1;fill-rule:nonzero;stroke:none;stroke-width:3;marker:none;visibility:visible;display:inline;overflow:visible;enable-background:accumulate"/><path id="path3861-6-5-4" d="m 207,155.25 a 63.25,63.25 0 1 1 -126.5,0 63.25,63.25 0 1 1 126.5,0 z" transform="matrix(1.5882415,0.42556804,-0.42556804,1.5882415,-34.240289,-140.59583)" style="opacity:.23999999;color:#000;fill:url(#radialGradient5830-3);fill-opacity:1;fill-rule:nonzero;stroke:none;stroke-width:3;marker:none;visibility:visible;display:inline;overflow:visible;enable-background:accumulate"/><path id="path3861-6-5-4-7" d="m 207,155.25 a 63.25,63.25 0 1 1 -126.5,0 63.25,63.25 0 1 1 126.5,0 z" transform="matrix(1.2217247,0.32736016,-0.32736016,1.2217247,3.199731,-69.576704)" style="opacity:.36000001;color:#000;fill:url(#radialGradient5832-3);fill-opacity:1;fill-rule:nonzero;stroke:none;stroke-width:3;marker:none;visibility:visible;display:inline;overflow:visible;enable-background:accumulate"/><path id="path3861-6-5-4-7-8" d="m 207,155.25 a 63.25,63.25 0 1 1 -126.5,0 63.25,63.25 0 1 1 126.5,0 z" transform="matrix(0.8702622,0.23318606,-0.23318606,0.8702622,39.101941,-1.4746246)" style="opacity:.47999998;color:#000;fill:url(#radialGradient4459-2);fill-opacity:1;fill-rule:nonzero;stroke:none;stroke-width:3;marker:none;visibility:visible;display:inline;overflow:visible;enable-background:accumulate"/></g></svg>